<svg xmlns="http://www.w3.org/2000/svg" xmlns:xlink="http://www.w3.org/1999/xlink" width="399.69" height="126.162" viewBox="0 0 399.69 126.162"><defs><linearGradient id="a" x1="-0.265" y1="1.491" x2="0.686" y2="-0.138" gradientUnits="objectBoundingBox"><stop offset="0" stop-color="#ffb749"/><stop offset="0.589" stop-color="#ff267d"/><stop offset="1" stop-color="#6f17ff"/></linearGradient><linearGradient id="b" x1="0.331" y1="0.868" x2="0.987" y2="-0.186" xlink:href="#a"/><linearGradient id="c" x1="0.047" y1="1.061" x2="0.74" y2="0.09" xlink:href="#a"/></defs><g transform="translate(-1.01 -1.9)"><path d="M162.5,40.3V4.3h12.9c4.5,0,8,.9,10.7,2.8,4.6,3.3,7,8.4,7,15.5a21.119,21.119,0,0,1-1.8,8.9,13.206,13.206,0,0,1-5.7,6.6c-2.5,1.5-6.4,2.2-11.6,2.2Zm10.4-29.9h-3.5V34.2h2.8c4.2,0,7-.3,8.4-.8,3.5-1.3,5.3-4.9,5.3-10.7s-1.8-9.5-5.5-11.3a9.006,9.006,0,0,0-2.8-.8A26.461,26.461,0,0,0,172.9,10.4Z"/><path d="M203.1,10.3v9h15V25h-15V40.2h-6.7V4.2h23.8v6H203.1Z"/><path d="M188.2,51.1h-19v8.5h17.4v5.8H169.2V75h20.3v6.1H162.6v-36h25.6v6Z"/><path d="M213.6,70.5,212.8,45h6.6V81h-5.9L197.7,55.7l.4,25.3h-6.6V45h6.1Z"/><path d="M248.1,45.1v6.1h-9.9V81.1h-6.8V51.2h-9.7V45.1h26.4Z"/><path d="M276.2,51.1h-19v8.5h17.4v5.8H257.2V75h20.3v6.1H250.6v-36h25.6Z"/><path d="M279.3,81.1v-36h11.4a30.265,30.265,0,0,1,6.2.4,10.6,10.6,0,0,1,4.9,2.3,10.906,10.906,0,0,1,4,8.9,10.13,10.13,0,0,1-2.7,7.3,10.594,10.594,0,0,1-4.3,2.6l8,14.6h-7.7L292,67.7h-6V81.1Zm9.8-30.2H286V62.2h2.4c1.1,0,2.6,0,4.4-.1,4.2-.2,6.3-2,6.3-5.6a5.133,5.133,0,0,0-2.9-4.9C295.2,51.1,292.8,50.9,289.1,50.9Z"/><path d="M308.8,62.2h12.7v5.7H308.8Z"/><path d="M189,85.9V92h-9.9v29.9h-6.8V92h-9.8V85.9Z" fill="url(#a)"/><path d="M210.9,121.9l-2.1-7H195.3l-2.1,7H186l12.2-36h7.7l12.3,36ZM197.1,109h10l-5-16.6Z"/><path d="M221.5,85.9h6.6v36h-6.6Z"/><path d="M287.7,85.9h9.8v36h-6.6l.6-29.6-7.8,29.6h-6.1l-7.8-29.6.7,29.6h-6.6v-36h9.8l7,26.7Z"/><path d="M327.2,91.9h-19v8.5h17.4v5.8H308.2v9.6h20.3v6.1H301.6v-36h25.6Z"/><path d="M353.7,111.3l-.8-25.5h6.6v36h-5.9L337.8,96.5l.4,25.3h-6.6v-36h6.1Z"/><path d="M254,111.3l-.8-25.5h6.6v36H254L238.2,96.5l.4,25.3H232v-36h6.1Z"/><path d="M390.3,85.9V92h-9.9v29.9h-6.8V92h-9.7V85.9Z"/><path d="M390.3,117a5.209,5.209,0,1,1,5.2,4.9A5.043,5.043,0,0,1,390.3,117Zm9.2,0a3.992,3.992,0,0,0-4-3.9,3.927,3.927,0,0,0-4,3.9,4,4,0,0,0,8,0Zm-5.2.5v1.9c0,.3-.2.4-.5.4a.458.458,0,0,1-.5-.4v-4.9a.265.265,0,0,1,.3-.3h1.9c1.4,0,2.2.4,2.2,1.6a1.561,1.561,0,0,1-1.5,1.6l1.3,1.8a.494.494,0,0,1,.1.3c0,.2-.3.2-.5.2a.462.462,0,0,1-.5-.3l-1.4-2.1h-.9Zm1.1-.9c.7,0,1.4,0,1.4-.9,0-.7-.7-.7-1.3-.7h-1.2v1.6Z"/><path d="M75.6,71.7,49.7,75h0c-1.9.2-2.6.3-3.8-3.8L40.8,51.8c-.5-1.9,1.1-1.8,2.5-1.2h0l14.1,6a7.251,7.251,0,0,0,6.4-.7L76,47.1a3.8,3.8,0,0,0,.9-5.2l-1.2-1.7a3.9,3.9,0,0,0-5.2-.9L62.6,45a7.216,7.216,0,0,1-6.4.7L40,38.8a13.776,13.776,0,1,0-13.3,2.1L2,68.2a3.651,3.651,0,0,0,.2,5.2l1.5,1.4a3.651,3.651,0,0,0,5.2-.2l19.2-21h0c1.6-1.8,2.7-2.5,3.3,0v.1L38.1,79A26.65,26.65,0,0,0,41,85.7l3.8,6.1c1.1,1.7,2.2,3.4-.4,5.9l-19.6,23a3.749,3.749,0,0,0,.4,5.2l1.6,1.3a3.756,3.756,0,0,0,5.2-.4L56.1,98.5a5.3,5.3,0,0,0,.4-5.9l-3.7-5.9c-.7-1.2-.3-2.4,2.2-2.8h0l9.1-1.2a2.644,2.644,0,0,1,3.1,3.2L63,112.1a3.712,3.712,0,0,0,3.1,4.2l2.1.3a3.64,3.64,0,0,0,4.2-3.1l6.2-38.7A2.544,2.544,0,0,0,75.6,71.7Zm-44-47.9a4.3,4.3,0,1,1-4.3,4.3A4.332,4.332,0,0,1,31.6,23.8Z" fill="url(#b)"/><path d="M108.4,70.2,86.2,108.8a3.672,3.672,0,0,0,2.2,4.7l2,.7a3.822,3.822,0,0,0,4.8-2.2l16.2-28.6h0c2.1-3.8,3.6-3.7,4.8,1.4,0,.2,0,.1.1.2l9.5,38.2a3.672,3.672,0,0,0,4.8,2l1.9-.8a3.672,3.672,0,0,0,2-4.8L121.7,71.5l-5.6-31c.3-.1.6.1,1.1.4l14.1,11.8c3.6,3,6.1.4,7.1-2.8l5.4-20.7a3.713,3.713,0,0,0-2.6-4.5l-2-.5a3.7,3.7,0,0,0-4.5,2.7l-2.8,10.9c-.5,2-1.2,2.1-2.7.7L115.5,27.1A13.805,13.805,0,1,0,93.9,15.7a13.364,13.364,0,0,0,.6,4l-3.6-.9a10.89,10.89,0,0,1-5.7-3.9L79,5.9A3.706,3.706,0,0,0,73.8,5L72.1,6.2a3.6,3.6,0,0,0-.9,5.1l8.3,11.9a8.011,8.011,0,0,0,5.7,3.9l15.5,3.3c1.2.3,2.2,1.2,2.8,3.2,3.3,13.9,5.6,23.2,5.6,23.2S111.6,63.8,108.4,70.2Zm-.7-58.7a4.3,4.3,0,1,1-4.3,4.3A4.268,4.268,0,0,1,107.7,11.5Z" fill="url(#c)"/></g></svg>