<?xml version="1.0" encoding="utf-8"?>
<!-- Generator: Adobe Illustrator 16.0.0, SVG Export Plug-In . SVG Version: 6.00 Build 0)  -->
<!DOCTYPE svg PUBLIC "-//W3C//DTD SVG 1.1//EN" "http://www.w3.org/Graphics/SVG/1.1/DTD/svg11.dtd">
<svg version="1.1" id="Capa_1" xmlns="http://www.w3.org/2000/svg" xmlns:xlink="http://www.w3.org/1999/xlink" x="0px" y="0px"
	 width="612px" height="301.43px" viewBox="0 0 612 301.43" enable-background="new 0 0 612 301.43" xml:space="preserve">
<path fill="#009DCD" d="M125.176,216.966c-0.07,4.731-0.394,9.702-1.501,14.589c-0.333,1.471-1.037,2.758-2.037,3.842
	c-1.306,1.397-2.941,2.042-4.841,1.569c-1.891-0.469-2.846-1.876-3.25-3.677c-0.552-2.45-0.092-4.918,0.162-7.358
	c0.384-3.717,0.705-7.421,0.544-11.152c-0.084-1.961-0.321-3.953-1.777-5.42c-1.947-1.96-4.643-1.717-6.996,0.488
	c-2.138,1.991-3.576,4.468-4.781,7.119c-2.419,5.366-4.05,11.016-5.792,16.61c-0.94,3.022-2.007,5.991-4.133,8.403
	c-7.434,8.36-21.189,7.455-27.338-1.978c-3.439-5.277-6.359-10.85-9.532-16.285c-0.691-1.172-1.43-2.316-2.375-3.325
	c-1.028-1.063-2.167-1.56-3.664-1.179c-1.579,0.399-2.132,1.613-2.394,2.995c-0.393,2.094-0.119,4.171,0.296,6.243
	c0.902,4.541,2.652,8.838,3.755,13.311c0.347,1.381,0.566,2.771,0.473,4.2c-0.113,1.635-0.793,2.986-2.337,3.628
	c-1.765,0.75-3.518,0.567-5.036-0.667c-1.471-1.193-2.284-2.89-2.926-4.593c-3.314-8.695-5.679-17.583-5.199-26.997
	c0.325-6.173,1.422-12.203,4.301-17.758c2.338-4.522,5.682-7.911,11.017-8.707c3.624-0.544,6.854,0.331,9.662,2.728
	c3.283,2.802,5.576,6.374,7.926,9.911c1.774,2.646,3.205,5.542,5.291,7.975c2.005,2.351,4.401,4.113,7.662,3.999
	c3.626-0.125,5.854-2.308,7.248-5.442c2.417-5.461,4.402-11.104,6.934-16.53c1.948-4.181,4.769-7.582,9.072-9.406
	c6.447-2.728,12.347-0.525,15.816,5.787c2.831,5.171,4.216,10.822,5.021,16.624C124.909,209.903,125.081,213.299,125.176,216.966"/>
<path fill="#009DCD" d="M142.916,214.339c0-4.03-0.132-7.397-0.264-10.303h8.52l0.394,4.355h0.198
	c1.387-2.113,4.294-5.148,9.775-5.148c4.229,0,7.461,2.179,8.849,5.547h0.132c1.254-1.719,2.643-3.038,4.228-3.958
	c1.783-0.996,3.764-1.589,6.143-1.589c6.205,0,10.895,4.356,10.895,14.064v19.02h-9.772v-17.566c0-4.686-1.519-7.396-4.756-7.396
	c-2.377,0-3.962,1.584-4.689,3.502c-0.198,0.725-0.33,1.713-0.33,2.572v18.888h-9.773v-18.161c0-4.023-1.453-6.801-4.688-6.801
	c-2.576,0-4.096,1.981-4.69,3.565c-0.331,0.793-0.396,1.718-0.396,2.579v18.817h-9.771V214.339z"/>
<path fill="#009DCD" d="M232.012,219.822c0,11.816-8.389,17.234-17.038,17.234c-9.446,0-16.708-6.211-16.708-16.642
	c0-10.502,6.866-17.171,17.302-17.171C225.407,203.243,232.012,210.044,232.012,219.822 M208.634,220.151
	c0,5.547,2.31,9.704,6.605,9.704c3.958,0,6.402-3.893,6.402-9.77c0-4.759-1.849-9.645-6.402-9.645
	C210.482,210.441,208.634,215.396,208.634,220.151"/>
<path fill="#009DCD" d="M245.488,204.036l4.361,14.989c0.792,2.773,1.32,5.282,1.849,7.856h0.199
	c0.529-2.641,1.057-5.083,1.782-7.856l4.158-14.989h10.569l-12.022,32.291h-10.036l-11.754-32.291H245.488z"/>
<path fill="#009DCD" d="M283.797,195.055c0,2.771-2.048,5.019-5.417,5.019c-3.17,0-5.214-2.247-5.214-5.019
	c0-2.841,2.109-5.02,5.346-5.02S283.73,192.214,283.797,195.055 M273.43,204.036h10.036v32.291H273.43V204.036z"/>
<path fill="#009DCD" d="M291.857,227.61c1.849,1.122,5.679,2.378,8.648,2.378c3.038,0,4.295-0.992,4.295-2.642
	c0-1.718-0.993-2.509-4.688-3.762c-6.737-2.248-9.314-5.88-9.247-9.71c0-6.075,5.153-10.631,13.141-10.631
	c3.765,0,7.067,0.922,9.048,1.914l-1.717,6.933c-1.453-0.792-4.292-1.847-7-1.847c-2.444,0-3.832,0.989-3.832,2.574
	c0,1.584,1.256,2.377,5.22,3.763c6.141,2.113,8.649,5.283,8.715,9.973c0,6.076-4.688,10.503-13.935,10.503
	c-4.223,0-7.989-0.989-10.432-2.314L291.857,227.61z"/>
<path fill="#009DCD" d="M332.209,195.319v8.718h7.199v7.396h-7.199v11.688c0,3.899,0.991,5.684,3.963,5.684
	c1.388,0,2.048-0.071,2.972-0.264l0.065,7.588c-1.254,0.464-3.698,0.859-6.472,0.859c-3.235,0-5.943-1.123-7.593-2.772
	c-1.85-1.912-2.773-5.016-2.773-9.573v-13.209h-4.294v-7.396h4.294v-6.011L332.209,195.319z"/>
<path fill="#009DCD" d="M372.495,228.534c0,3.038,0.137,6.009,0.529,7.793h-9.047l-0.594-3.233h-0.198
	c-2.113,2.572-5.416,3.962-9.246,3.962c-6.538,0-10.434-4.754-10.434-9.908c0-8.387,7.529-12.349,18.952-12.349v-0.397
	c0-1.782-0.923-4.226-5.877-4.226c-3.302,0-6.803,1.122-8.916,2.443l-1.849-6.471c2.247-1.256,6.671-2.905,12.549-2.905
	c10.763,0,14.13,6.339,14.13,14.001V228.534z M362.789,221.072c-5.283,0-9.377,1.255-9.377,5.086c0,2.577,1.717,3.83,3.962,3.83
	c2.442,0,4.556-1.646,5.218-3.698c0.131-0.527,0.197-1.12,0.197-1.718V221.072z"/>
<path fill="#009DCD" d="M380.893,214.667c0-4.755-0.066-7.859-0.264-10.631h8.582l0.398,5.94h0.265
	c1.649-4.755,5.547-6.733,8.717-6.733c0.922,0,1.386,0.065,2.113,0.197v9.442c-0.793-0.129-1.585-0.264-2.709-0.264
	c-3.697,0-6.207,1.979-6.867,5.085c-0.133,0.66-0.197,1.453-0.197,2.245v16.378h-10.038V214.667z"/>
<path fill="#009DCD" d="M447.002,228.534c0,3.038,0.133,6.009,0.529,7.793h-9.047l-0.597-3.233h-0.195
	c-2.112,2.572-5.419,3.962-9.249,3.962c-6.537,0-10.435-4.754-10.435-9.908c0-8.387,7.533-12.349,18.954-12.349v-0.397
	c0-1.782-0.924-4.226-5.874-4.226c-3.306,0-6.805,1.122-8.918,2.443l-1.852-6.471c2.248-1.256,6.671-2.905,12.55-2.905
	c10.763,0,14.133,6.339,14.133,14.001V228.534z M437.293,221.072c-5.283,0-9.374,1.255-9.374,5.086c0,2.577,1.713,3.83,3.962,3.83
	c2.44,0,4.554-1.646,5.214-3.698c0.131-0.527,0.198-1.12,0.198-1.718V221.072z"/>
<path fill="#009DCD" d="M455.396,214.667c0-4.755-0.067-7.859-0.265-10.631h8.583l0.398,5.94h0.264
	c1.65-4.755,5.548-6.733,8.717-6.733c0.923,0,1.387,0.065,2.113,0.197v9.442c-0.792-0.129-1.585-0.264-2.708-0.264
	c-3.699,0-6.208,1.979-6.868,5.085c-0.132,0.66-0.197,1.453-0.197,2.245v16.378h-10.037V214.667z"/>
<path fill="#009DCD" d="M488.087,223.383c0.265,4.163,4.426,6.142,9.113,6.142c3.431,0,6.208-0.462,8.915-1.386l1.32,6.804
	c-3.301,1.385-7.333,2.044-11.688,2.044c-10.963,0-17.235-6.339-17.235-16.443c0-8.188,5.081-17.234,16.311-17.234
	c10.434,0,14.396,8.123,14.396,16.112c0,1.717-0.203,3.235-0.332,3.962H488.087z M499.909,216.516c0-2.44-1.057-6.539-5.684-6.539
	c-4.227,0-5.939,3.897-6.203,6.539H499.909z"/>
<path fill="#009DCD" d="M515.63,214.339c0-4.03-0.131-7.397-0.265-10.303h8.721l0.46,4.489h0.201
	c1.32-2.112,4.553-5.217,9.968-5.217c6.604,0,11.556,4.425,11.556,13.936v19.083h-10.037V218.43c0-4.155-1.448-6.998-5.084-6.998
	c-2.774,0-4.426,1.915-5.151,3.763c-0.264,0.661-0.331,1.586-0.331,2.51v18.623H515.63V214.339z"/>
<path fill="#009DCD" d="M581.61,228.534c0,3.038,0.132,6.009,0.527,7.793h-9.046l-0.595-3.233h-0.198
	c-2.112,2.572-5.417,3.962-9.247,3.962c-6.537,0-10.437-4.754-10.437-9.908c0-8.387,7.533-12.349,18.959-12.349v-0.397
	c0-1.782-0.927-4.226-5.879-4.226c-3.303,0-6.802,1.122-8.915,2.443l-1.854-6.471c2.25-1.256,6.671-2.905,12.552-2.905
	c10.763,0,14.133,6.339,14.133,14.001V228.534z M571.901,221.072c-5.283,0-9.376,1.255-9.376,5.086c0,2.577,1.715,3.83,3.962,3.83
	c2.442,0,4.556-1.646,5.217-3.698c0.128-0.527,0.197-1.12,0.197-1.718V221.072z"/>
<path fill="#009DCD" d="M89.326,141.98c0,0-2.563-2.381,4.124-8.245c9.81-8.603,78.418-87.944,208.135-84.28
	c129.717,3.664,203.738,71.253,239.651,104.149c0,0,3.618,3.124-2.758,1.62c0,0-242.023-47.873-351.954-7.565
	c0,0,132.649-35.179,350.313,12.458c0,0,23.406,6.438,10.26-6.513C533.394,140.103,452.557,50.92,300.119,43.591
	c0,0-123.527-6.598-212.736,87.944c0,0-7.183,7.08-3.614,13.353c3.391,5.956,12.154,3.136,21.039-2.268
	c6.13-3.729,115.427-82.906,334.558-25.739c0,0-102.072-36.896-215.465-21.988c0,0-60.094,6.594-125.321,44.706
	C98.579,139.599,90.515,144.45,89.326,141.98"/>
</svg>
